<svg width="20" height="20" viewBox="0 0 20 20" fill="none" xmlns="http://www.w3.org/2000/svg">
<path d="M10 15.625C13.797 15.625 16.875 12.547 16.875 8.75C16.875 4.95304 13.797 1.875 10 1.875C6.20304 1.875 3.125 4.95304 3.125 8.75C3.125 12.547 6.20304 15.625 10 15.625Z" stroke="#333333" stroke-width="0.75" stroke-linejoin="round"/>
<path d="M9.0625 15.625V19.6875" stroke="#333333" stroke-width="0.75" stroke-linejoin="round"/>
<path d="M10.9375 15.625V19.6875" stroke="#333333" stroke-width="0.75" stroke-linejoin="round"/>
<path d="M10 14.375C13.1066 14.375 15.625 11.8566 15.625 8.75C15.625 5.6434 13.1066 3.125 10 3.125C6.8934 3.125 4.375 5.6434 4.375 8.75C4.375 11.8566 6.8934 14.375 10 14.375Z" stroke="#333333" stroke-width="0.75" stroke-linejoin="round"/>
<path d="M12.1875 5.9375H7.8125C7.46732 5.9375 7.1875 6.21732 7.1875 6.5625V10.9375C7.1875 11.2827 7.46732 11.5625 7.8125 11.5625H12.1875C12.5327 11.5625 12.8125 11.2827 12.8125 10.9375V6.5625C12.8125 6.21732 12.5327 5.9375 12.1875 5.9375Z" stroke="#333333" stroke-width="0.75" stroke-linejoin="round"/>
<path d="M8.4375 5.9375V4.6875H11.5625V5.9375" stroke="#333333" stroke-width="0.75" stroke-linejoin="round"/>
<path d="M7.8125 11.5625V12.1875C7.8125 12.2704 7.84542 12.3499 7.90403 12.4085C7.96263 12.4671 8.04212 12.5 8.125 12.5H8.75C8.83288 12.5 8.91237 12.4671 8.97097 12.4085C9.02958 12.3499 9.0625 12.2704 9.0625 12.1875V11.5625" stroke="#333333" stroke-width="0.75" stroke-linejoin="round"/>
<path d="M10.9375 11.5625V12.1875C10.9375 12.2704 10.9704 12.3499 11.029 12.4085C11.0876 12.4671 11.1671 12.5 11.25 12.5H11.875C11.9579 12.5 12.0374 12.4671 12.096 12.4085C12.1546 12.3499 12.1875 12.2704 12.1875 12.1875V11.5625" stroke="#333333" stroke-width="0.75" stroke-linejoin="round"/>
<path d="M7.1875 7.1875H12.8125" stroke="#333333" stroke-width="0.75" stroke-linejoin="round"/>
<path d="M7.1875 9.0625H12.8125" stroke="#333333" stroke-width="0.75" stroke-linejoin="round"/>
<path d="M8.125 10.3125H9.375" stroke="#333333" stroke-width="0.75" stroke-linejoin="round"/>
<path d="M10.625 10.3125H11.875" stroke="#333333" stroke-width="0.75" stroke-linejoin="round"/>
<path d="M10.9375 1.875V0.625H9.0625V1.875" stroke="#333333" stroke-width="0.75" stroke-linejoin="round"/>
</svg>
