<svg width="64" height="64" viewBox="0 0 64 64" fill="none" xmlns="http://www.w3.org/2000/svg">
<path fill-rule="evenodd" clip-rule="evenodd" d="M38.5 24V30.0001H36.5V24H38.5Z" fill="#333333"/>
<path fill-rule="evenodd" clip-rule="evenodd" d="M19.5 24V30.0001H17.5V24H19.5Z" fill="#333333"/>
<path fill-rule="evenodd" clip-rule="evenodd" d="M62 34C63.0928 34 64 34.9071 64 35.9998V36.4995C64 38.1445 62.645 39.4995 61 39.4995H56V37.4995H61C61.5642 37.4995 62 37.0633 62 36.4995V35.9998H56V34H62Z" fill="#333333"/>
<path d="M52 32C54.7496 32 57 34.2505 57 37.0001C57 39.7497 54.7496 41.9999 52 41.9999C49.2504 41.9999 47 39.7497 47 37.0001C47 34.2505 49.2504 32 52 32ZM52 34C50.3314 34 49 35.3313 49 37.0001C49 38.6687 50.3314 39.9999 52 39.9999C53.6688 39.9999 55 38.6687 55 37.0001C55 35.3313 53.6688 34 52 34Z" fill="#333333"/>
<path fill-rule="evenodd" clip-rule="evenodd" d="M10 34V35.9998H2V36.4995C2 37.0634 2.436 37.4995 3 37.4995H10V39.4995H3C1.355 39.4995 0 38.1445 0 36.4995V35.9998C0 34.9071 0.9074 34 2 34H10Z" fill="#333333"/>
<path d="M14 32C16.7496 32 19 34.2505 19 37.0001C19 39.7497 16.7496 41.9999 14 41.9999C11.2504 41.9999 9 39.7497 9 37.0001C9 34.2505 11.2504 32 14 32ZM14 34C12.3314 34 11 35.3313 11 37.0001C11 38.6687 12.3314 39.9999 14 39.9999C15.6688 39.9999 17 38.6687 17 37.0001C17 35.3313 15.6688 34 14 34Z" fill="#333333"/>
<path fill-rule="evenodd" clip-rule="evenodd" d="M41.6405 23.0002C42.7431 23.0002 43.8135 23.3669 44.6875 24.0392L49.0313 27.3791C49.5557 27.7827 50.1975 28.0005 50.8593 28.0005H56.9999C59.7875 28.0005 62.1737 30.0461 62.5977 32.8013L62.9883 35.3481L61.0117 35.6528L60.6211 33.1058C60.3451 31.3122 58.8147 30.0003 56.9999 30.0003H50.8593C49.7567 30.0003 48.6863 29.6376 47.8125 28.9653L43.4687 25.6213C42.9441 25.2176 42.3023 25 41.6405 25H17.6211C15.5153 25 13.4769 25.7376 11.8593 27.0859L9.19531 29.3046C8.65631 29.7536 7.97891 30.0001 7.27731 30.0001H3.99991C3.66311 30.0001 3.39911 30.2426 3.37111 30.5782L2.99611 35.0823L1.00391 34.9183L1.37891 30.4103C1.49091 29.0561 2.64111 28.0001 3.99991 28.0001H7.27731C7.51151 28.0001 7.73811 27.92 7.91791 27.7696L10.5781 25.5509C12.5549 23.9036 15.0479 23 17.6211 23L41.6405 23.0002Z" fill="#333333"/>
<path fill-rule="evenodd" clip-rule="evenodd" d="M48.5 37.5V39.5H17.5V37.5H48.5Z" fill="#333333"/>
<path fill-rule="evenodd" clip-rule="evenodd" d="M48.5 34V35.9998H17.5V34H48.5Z" fill="#333333"/>
<path fill-rule="evenodd" clip-rule="evenodd" d="M51 28V30H8V28H51Z" fill="#333333"/>
</svg>
