<svg width="66" height="110" viewBox="0 0 66 110" fill="none" xmlns="http://www.w3.org/2000/svg">
<path d="M16.5715 42.768C12.3475 42.768 8.97683 40.9333 6.4595 37.264C3.98483 33.5947 2.7475 28.3253 2.7475 21.456C2.7475 14.5867 3.98483 9.38133 6.4595 5.84C8.97683 2.29867 12.3475 0.528 16.5715 0.528C20.7955 0.528 24.1448 2.29867 26.6195 5.84C29.1368 9.38133 30.3955 14.5867 30.3955 21.456C30.3955 28.3253 29.1368 33.5947 26.6195 37.264C24.1448 40.9333 20.7955 42.768 16.5715 42.768ZM16.5715 37.008C17.8942 37.008 19.0675 36.5173 20.0915 35.536C21.1155 34.512 21.9048 32.8693 22.4595 30.608C23.0568 28.3467 23.3555 25.296 23.3555 21.456C23.3555 17.616 23.0568 14.5867 22.4595 12.368C21.9048 10.1493 21.1155 8.592 20.0915 7.696C19.0675 6.75733 17.8942 6.288 16.5715 6.288C15.2915 6.288 14.1395 6.75733 13.1155 7.696C12.0915 8.592 11.2808 10.1493 10.6835 12.368C10.0862 14.5867 9.7875 17.616 9.7875 21.456C9.7875 25.296 10.0862 28.3467 10.6835 30.608C11.2808 32.8693 12.0915 34.512 13.1155 35.536C14.1395 36.5173 15.2915 37.008 16.5715 37.008ZM37.736 42V35.984H46.824V9.232H39.336V4.624C41.3413 4.24 43.0907 3.792 44.584 3.28C46.0773 2.72533 47.464 2.064 48.744 1.296H54.248V35.984H62.248V42H37.736Z" fill="url(#paint0_linear_314_1089)"/>
<path d="M64.9102 81.6232C64.91 81.6229 64.91 81.6227 64.9099 81.6224L52.8264 51.2818C52.57 50.6372 51.8392 50.3225 51.1946 50.5789C51.1941 50.5791 51.1936 50.5792 51.1932 50.5796L2.17216 70.0993C1.97225 70.1856 1.79887 70.3235 1.66963 70.4988C1.26195 70.7106 1.0044 71.1299 1 71.5893V104.254C1 104.948 1.56252 105.51 2.25634 105.51H55.0225C55.7163 105.51 56.2788 104.948 56.2788 104.254V86.4141L64.2088 83.2556C64.8533 82.9985 65.1673 82.2677 64.9102 81.6232ZM53.7662 102.998H3.51267V72.8456H53.7662V102.998ZM21.962 70.3392L42.9981 61.9569C44.8755 63.9303 47.4769 65.0519 50.2007 65.0626L52.2988 70.3392H21.962ZM56.2788 83.7154V71.5893C56.2788 70.8955 55.7163 70.3329 55.0225 70.3329H55.0024L52.3402 63.6467C52.3107 63.591 52.2763 63.5379 52.2372 63.4884C52.1024 62.8833 51.5421 62.4705 50.9243 62.521C48.39 62.752 45.9107 61.6845 44.3373 59.6842C43.9458 59.201 43.2577 59.0809 42.7255 59.4028C42.6658 59.4099 42.6066 59.4209 42.5483 59.4355L16.8663 69.6621C16.5555 69.7839 16.3069 70.0256 16.1765 70.3329H8.37721L50.957 53.3787L62.112 81.3887L56.2788 83.7154Z" fill="#C22467"/>
<path d="M6.92242 94.5162C9.36159 95.2371 11.2703 97.1435 11.9942 99.5817C12.153 100.114 12.6425 100.479 13.1978 100.479C13.263 100.475 13.3277 100.465 13.3913 100.45C13.4477 100.466 13.5053 100.478 13.5634 100.485H43.7155C43.7673 100.478 43.8185 100.468 43.8688 100.454C44.4965 100.606 45.129 100.221 45.2818 99.5936C45.2823 99.5913 45.2829 99.5891 45.2834 99.5867C46.0055 97.146 47.9145 95.237 50.3552 94.5149C50.9471 94.334 51.3149 93.7441 51.2171 93.1329C51.2339 93.072 51.246 93.0098 51.2535 92.947V82.8963C51.2461 82.8333 51.2336 82.7711 51.2158 82.7104C51.3143 82.099 50.9463 81.5088 50.354 81.3284C47.9132 80.6065 46.0047 78.6967 45.2847 76.2553C45.1028 75.6593 44.5071 75.2906 43.8926 75.3935C43.8345 75.3773 43.7753 75.3655 43.7155 75.3583H13.5634C13.5001 75.3658 13.4375 75.3784 13.3762 75.396C12.7652 75.2986 12.1756 75.6662 11.9942 76.2578C11.2717 78.6981 9.36285 80.6065 6.92242 81.3284C6.33052 81.5093 5.96273 82.0992 6.06057 82.7104C6.04424 82.7714 6.03246 82.8335 6.02539 82.8963V92.947C6.03261 93.006 6.04439 93.0645 6.06057 93.1216C5.95755 93.7368 6.32613 94.3332 6.92242 94.5162ZM8.53806 83.4064C11.0608 82.3931 13.0602 80.3937 14.0735 77.871H43.2042C44.2179 80.3937 46.2178 82.3931 48.7408 83.4064V92.4369C46.2189 93.4513 44.2198 95.4504 43.2054 97.9723H14.0735C13.0592 95.4504 11.06 93.4513 8.53806 92.4369V83.4064Z" fill="#C22467"/>
<path d="M28.6396 95.4597C32.8028 95.4597 36.1776 92.0849 36.1776 87.9217C36.1776 83.7585 32.8028 80.3837 28.6396 80.3837C24.4764 80.3837 21.1016 83.7585 21.1016 87.9217C21.1056 92.0831 24.4781 95.4556 28.6396 95.4597ZM28.6396 82.8963C31.415 82.8963 33.6649 85.1463 33.6649 87.9217C33.6649 90.6971 31.415 92.947 28.6396 92.947C25.8642 92.947 23.6142 90.6971 23.6142 87.9217C23.6142 85.1463 25.8642 82.8963 28.6396 82.8963Z" fill="#C22467"/>
<path d="M14.8201 89.8061C15.8608 89.8061 16.7046 88.9623 16.7046 87.9216C16.7046 86.8809 15.8608 86.0371 14.8201 86.0371C13.7793 86.0371 12.9355 86.8809 12.9355 87.9216C12.9355 88.9625 13.7793 89.8061 14.8201 89.8061ZM14.8201 87.2934C15.167 87.2934 15.4482 87.5747 15.4482 87.9216C15.4482 88.2685 15.167 88.5498 14.8201 88.5498C14.4731 88.5498 14.1919 88.2685 14.1919 87.9216C14.1919 87.5747 14.4731 87.2934 14.8201 87.2934Z" fill="#C22467"/>
<path d="M42.4587 89.8061C43.4994 89.8061 44.3432 88.9623 44.3432 87.9216C44.3432 86.8809 43.4994 86.0371 42.4587 86.0371C41.418 86.0371 40.5742 86.8809 40.5742 87.9216C40.5742 88.9625 41.418 89.8061 42.4587 89.8061ZM42.4587 87.2934C42.8056 87.2934 43.0869 87.5747 43.0869 87.9216C43.0869 88.2685 42.8056 88.5498 42.4587 88.5498C42.1118 88.5498 41.8306 88.2685 41.8306 87.9216C41.8306 87.5747 42.1118 87.2934 42.4587 87.2934Z" fill="#C22467"/>
<defs>
<linearGradient id="paint0_linear_314_1089" x1="35" y1="-37.5" x2="33" y2="38" gradientUnits="userSpaceOnUse">
<stop stop-color="#D1D1D1"/>
<stop offset="1" stop-color="#999999" stop-opacity="0"/>
</linearGradient>
</defs>
</svg>
