<svg width="48" height="48" viewBox="0 0 48 48" fill="none" xmlns="http://www.w3.org/2000/svg">
<path d="M18.3077 14.4222H40.5456L28.3979 23.9616C28.1405 24.1635 27.8342 24.2621 27.5564 24.2891C27.2767 24.2617 26.9695 24.163 26.7093 23.9616L18.028 17.142C17.9361 17.0681 17.8322 17.0116 17.718 16.9766C18.1266 16.4001 18.3599 15.7027 18.3475 14.9513C18.3452 14.7792 18.33 14.6019 18.3077 14.4222ZM12.6525 8.28725C12.6805 8.29199 12.7264 8.30953 12.8265 8.35599C13.0242 8.44986 13.3385 8.69164 13.6462 9.0287C14.2658 9.70378 14.8849 10.7264 15.2063 11.4014C15.2163 11.4214 15.2267 11.4432 15.2362 11.4654C16.1483 13.0304 16.5418 14.2274 16.5537 14.9783C16.5665 15.7326 16.364 16.0573 15.7245 16.4247L14.0747 17.3757C13 17.9944 12.4923 19.1032 12.3662 20.1377C12.2396 21.1726 12.4259 22.1781 12.8862 22.9731L16.9585 29.9918C17.4198 30.7863 18.2072 31.451 19.1701 31.8592C20.1339 32.2683 21.3527 32.384 22.4274 31.7667L24.0772 30.8176C24.7163 30.4512 25.1026 30.4436 25.7516 30.8295C26.4025 31.2163 27.2478 32.1507 28.1561 33.7166C28.1689 33.7398 28.1813 33.7593 28.196 33.7815C28.6217 34.3955 29.2015 35.437 29.4812 36.3093C29.6201 36.7426 29.6746 37.1342 29.6571 37.3508C29.6376 37.5684 29.6329 37.5462 29.5755 37.5803L28.3202 38.2999C25.1666 39.6676 22.2762 39.359 19.693 38.0193C17.105 36.6739 14.8555 34.2442 13.2873 31.3917C13.2821 31.386 13.2797 31.3789 13.2754 31.3751L9.84029 25.4549C9.8346 25.4492 9.83223 25.444 9.82749 25.4364C8.12793 22.6583 7.13759 19.5043 7.2618 16.6025C7.386 13.705 8.56171 11.0634 11.3312 9.03107L12.5871 8.3138C12.616 8.29721 12.6255 8.28441 12.6525 8.28725ZM12.6653 6.52322C12.333 6.51801 11.994 6.58769 11.6892 6.76452L10.3613 7.52826C10.3314 7.54532 10.3039 7.56286 10.2769 7.57993C7.08212 9.91806 5.61107 13.1731 5.46743 16.5281C5.32378 19.8817 6.44355 23.3429 8.29338 26.3689L11.7171 32.2688L11.7091 32.2512C13.4181 35.3569 15.8672 38.051 18.86 39.6032C21.8543 41.1576 25.4212 41.5179 29.0545 39.9336C29.0844 39.9208 29.1147 39.9066 29.1417 39.89L30.4715 39.1262C31.0864 38.7764 31.3955 38.0956 31.4457 37.5011C31.4974 36.9085 31.3765 36.3316 31.1931 35.7632C30.8337 34.6391 30.207 33.5473 29.6893 32.7983C28.7113 31.1158 27.7669 29.9482 26.6756 29.2954C25.5758 28.6397 24.2555 28.6492 23.1784 29.2683L21.5286 30.2193C21.0412 30.5 20.4714 30.4673 19.8717 30.2137C19.2748 29.96 18.7221 29.4528 18.5168 29.0972L14.4445 22.079C14.2387 21.7216 14.0705 20.9924 14.1501 20.3496C14.2269 19.7086 14.4872 19.2066 14.975 18.9255L16.5778 18.0039C16.6195 18.2186 16.7409 18.4135 16.9168 18.5443L25.5985 25.3653C26.1631 25.809 26.8321 26.056 27.5057 26.0949C27.5398 26.0968 27.5749 26.0968 27.6095 26.0949C28.2837 26.056 28.9493 25.8086 29.5144 25.3653L41.4715 15.972V31.4903C41.4715 31.7264 41.2022 32.0374 40.6741 32.0374H32.3963C31.898 32.0346 31.4946 32.4366 31.4946 32.932C31.4946 33.4265 31.8985 33.8285 32.3963 33.8256H40.6741C42.0271 33.8256 43.2706 32.8476 43.2706 31.4903V14.9693C43.2706 13.6111 42.0271 12.6336 40.6741 12.6336H17.8152C17.562 12.0007 17.2278 11.3299 16.8068 10.6007C16.4129 9.78058 15.7738 8.69638 14.974 7.82455C14.5701 7.38272 14.1344 6.99113 13.5897 6.73798V6.74035C13.319 6.61235 12.9971 6.53033 12.6653 6.52322Z" fill="#333333"/>
</svg>
