<svg width="32" height="32" viewBox="0 0 32 32" fill="none" xmlns="http://www.w3.org/2000/svg">
<g clip-path="url(#clip0_331_1371)">
<path d="M29 16C29 8.81953 23.1805 3 16 3C8.81953 3 3 8.81953 3 16C3 22.4893 7.75109 27.8676 13.9698 28.8431V19.7609H10.6715V16H13.9698V13.1364C13.9698 9.88086 15.9071 8.07914 18.8778 8.07914C20.3022 8.07914 21.7911 8.33559 21.7911 8.33559V11.5338H20.1529C18.536 11.5338 18.0373 12.5382 18.0373 13.564V16H21.6418L21.0649 19.7609H18.0373V28.8431C24.2489 27.8676 29 22.4893 29 16Z" fill="#FFFAE6"/>
<path d="M21.057 19.7608L21.6343 16H18.0299V13.564C18.0299 12.5382 18.5357 11.5338 20.1454 11.5338H21.7836V8.33555C21.7836 8.33555 20.2947 8.0791 18.8703 8.0791C15.9001 8.0791 13.9623 9.88133 13.9623 13.1364V16H10.6641V19.7608H13.9623V28.843C14.625 28.9497 15.3014 29 15.9925 29C16.6837 29 17.3601 28.9431 18.0228 28.843V19.7608H21.057Z" fill="#3B5E68"/>
</g>
<defs>
<clipPath id="clip0_331_1371">
<rect width="26" height="26" fill="white" transform="translate(3 3)"/>
</clipPath>
</defs>
</svg>
