<svg width="32" height="32" viewBox="0 0 32 32" fill="none" xmlns="http://www.w3.org/2000/svg">
<g clip-path="url(#clip0_331_1376)">
<path d="M19.8752 9.91699H12.126C10.8891 9.91699 9.88281 10.9233 9.88281 12.1602V19.9094C9.88281 21.1462 10.8891 22.1528 12.126 22.1528H19.8752C21.1121 22.1528 22.1187 21.1465 22.1187 19.9094V12.1602C22.1187 10.9233 21.1124 9.91699 19.8752 9.91699ZM16.0006 20.0629C13.7797 20.0629 11.9728 18.2559 11.9728 16.0348C11.9728 13.8139 13.7797 12.0069 16.0006 12.0069C18.2218 12.0069 20.0287 13.8139 20.0287 16.0348C20.0287 18.2556 18.2215 20.0629 16.0006 20.0629ZM20.1582 12.8397C19.6325 12.8397 19.2049 12.4122 19.2049 11.8867C19.2049 11.3613 19.6325 10.9337 20.1582 10.9337C20.6837 10.9337 21.1112 11.3613 21.1112 11.8867C21.1112 12.4122 20.6837 12.8397 20.1582 12.8397Z" fill="#FFFAE6"/>
<path d="M15.9999 13.71C14.7178 13.71 13.6738 14.7533 13.6738 16.0354C13.6738 17.3181 14.7178 18.3617 15.9999 18.3617C17.2825 18.3617 18.3256 17.3181 18.3256 16.0354C18.3256 14.7536 17.2822 13.71 15.9999 13.71Z" fill="#FFFAE6"/>
<path d="M16 3C8.82058 3 3 8.82057 3 16C3 23.1794 8.82058 28.9999 16 28.9999C23.1794 28.9999 29 23.1794 29 16C29 8.82057 23.1794 3 16 3ZM23.8199 19.9096C23.8199 22.0853 22.0503 23.8549 19.8746 23.8549H12.1254C9.95 23.8549 8.18013 22.0853 8.18013 19.9096V12.1604C8.18013 9.98503 9.95 8.21517 12.1254 8.21517H19.8746C22.0503 8.21517 23.8199 9.98503 23.8199 12.1604V19.9096Z" fill="#FFFAE6"/>
</g>
<defs>
<clipPath id="clip0_331_1376">
<rect width="26" height="25.9999" fill="white" transform="translate(3 3)"/>
</clipPath>
</defs>
</svg>
