<svg width="66" height="110" viewBox="0 0 66 110" fill="none" xmlns="http://www.w3.org/2000/svg">
<path d="M16.5715 42.768C12.3475 42.768 8.97683 40.9333 6.4595 37.264C3.98483 33.5947 2.7475 28.3253 2.7475 21.456C2.7475 14.5867 3.98483 9.38133 6.4595 5.84C8.97683 2.29867 12.3475 0.528 16.5715 0.528C20.7955 0.528 24.1448 2.29867 26.6195 5.84C29.1368 9.38133 30.3955 14.5867 30.3955 21.456C30.3955 28.3253 29.1368 33.5947 26.6195 37.264C24.1448 40.9333 20.7955 42.768 16.5715 42.768ZM16.5715 37.008C17.8942 37.008 19.0675 36.5173 20.0915 35.536C21.1155 34.512 21.9048 32.8693 22.4595 30.608C23.0568 28.3467 23.3555 25.296 23.3555 21.456C23.3555 17.616 23.0568 14.5867 22.4595 12.368C21.9048 10.1493 21.1155 8.592 20.0915 7.696C19.0675 6.75733 17.8942 6.288 16.5715 6.288C15.2915 6.288 14.1395 6.75733 13.1155 7.696C12.0915 8.592 11.2808 10.1493 10.6835 12.368C10.0862 14.5867 9.7875 17.616 9.7875 21.456C9.7875 25.296 10.0862 28.3467 10.6835 30.608C11.2808 32.8693 12.0915 34.512 13.1155 35.536C14.1395 36.5173 15.2915 37.008 16.5715 37.008ZM35.432 42V37.712C39.2293 34.0427 42.4933 30.7787 45.224 27.92C47.9973 25.0187 50.1307 22.3947 51.624 20.048C53.1173 17.6587 53.864 15.44 53.864 13.392C53.864 11.2587 53.288 9.552 52.136 8.272C50.984 6.992 49.32 6.352 47.144 6.352C45.5653 6.352 44.1147 6.8 42.792 7.696C41.512 8.592 40.3173 9.65866 39.208 10.896L35.112 6.8C36.9893 4.79467 38.9307 3.25867 40.936 2.192C42.9413 1.08267 45.3307 0.528 48.104 0.528C52.0293 0.528 55.144 1.65867 57.448 3.92C59.7947 6.18133 60.968 9.21066 60.968 13.008C60.968 15.3973 60.2853 17.8507 58.92 20.368C57.5973 22.8427 55.8053 25.3813 53.544 27.984C51.3253 30.5867 48.872 33.3173 46.184 36.176C47.2507 36.0907 48.4027 36.0053 49.64 35.92C50.8773 35.792 51.9867 35.728 52.968 35.728H62.952V42H35.432Z" fill="url(#paint0_linear_270_2521)"/>
<path d="M63.6933 84.8653C62.4665 82.4447 59.3973 76.4348 56.7725 71.2993H58.3172C61.0111 71.2993 63.1944 69.1162 63.1944 66.4223V65.5359C63.1944 62.8421 61.0111 60.6587 58.3172 60.6587H7.37271C4.67882 60.6587 2.49552 62.842 2.49552 65.5359V66.4223C2.49552 69.1162 4.67882 71.2993 7.37271 71.2993H9.43658L2.51203 84.8608C0.739874 88.3313 1.37949 90.7118 2.22787 92.0978C3.69309 94.4909 6.56938 95.3439 8.77264 95.3439H57.4303C59.923 95.3439 62.3616 93.996 63.6429 91.9099C64.9224 89.8275 64.9403 87.3254 63.6933 84.8653ZM60.8369 90.1862C60.152 91.3014 58.783 92.0504 57.4304 92.0504H8.77277C7.42263 92.0504 5.74378 91.5333 5.03671 90.3781C4.29571 89.168 4.84995 87.5244 5.44515 86.3584L16.2436 65.2106H49.9602C51.8157 68.8379 58.7513 82.3987 60.7559 86.3542C61.4761 87.775 61.5042 89.1003 60.8369 90.1862Z" fill="#42B384"/>
<path d="M28.4926 78.7762L31.2973 75.9715V85.4663C31.2973 86.3756 32.0344 87.1129 32.9439 87.1129C33.8532 87.1129 34.5905 86.3755 34.5905 85.4663V76.2568L37.0641 78.7304C37.8703 79.5368 39.1783 79.5368 39.9845 78.7304C40.7912 77.9239 40.7912 76.6164 39.9845 75.8096L32.8009 68.6262L25.5716 75.8551C24.7652 76.6619 24.7652 77.9692 25.5716 78.7761C26.3784 79.5825 27.6863 79.5825 28.4926 78.7762Z" fill="#42B384"/>
<defs>
<linearGradient id="paint0_linear_270_2521" x1="35" y1="-37.5" x2="33" y2="38" gradientUnits="userSpaceOnUse">
<stop stop-color="#D1D1D1"/>
<stop offset="1" stop-color="#999999" stop-opacity="0"/>
</linearGradient>
</defs>
</svg>
