<svg width="52" height="52" viewBox="0 0 52 52" fill="none" xmlns="http://www.w3.org/2000/svg">
<g clip-path="url(#clip0_2118_1236)">
<path d="M1.52344 52C2.36478 52 3.04688 51.3179 3.04688 50.4766V30.5703H12.2891V50.4766C12.2891 51.3179 12.9712 52 13.8125 52C14.6538 52 15.3359 51.3179 15.3359 50.4766V30.5703H24.4766V50.4766C24.4766 51.3179 25.1587 52 26 52C26.8413 52 27.5234 51.3179 27.5234 50.4766V30.5703H36.6641V50.4766C36.6641 51.3179 37.3462 52 38.1875 52C39.0288 52 39.7109 51.3179 39.7109 50.4766V30.5703H48.9531V50.4766C48.9531 51.3179 49.6352 52 50.4766 52C51.3179 52 52 51.3179 52 50.4766V1.52344C52 0.682094 51.3179 0 50.4766 0C49.6352 0 48.9531 0.682094 48.9531 1.52344V21.4297H39.7109V1.52344C39.7109 0.682094 39.0288 0 38.1875 0C37.3462 0 36.6641 0.682094 36.6641 1.52344V21.4297H27.5234V1.52344C27.5234 0.682094 26.8413 0 26 0C25.1587 0 24.4766 0.682094 24.4766 1.52344V21.4297H15.3359V1.52344C15.3359 0.682094 14.6538 0 13.8125 0C12.9712 0 12.2891 0.682094 12.2891 1.52344V21.4297H3.04688V1.52344C3.04688 0.682094 2.36478 0 1.52344 0C0.682094 0 0 0.682094 0 1.52344V50.4766C0 51.3179 0.682094 52 1.52344 52ZM48.9531 24.4766V27.5234H3.04688V24.4766H48.9531Z" fill="#333333"/>
</g>
<defs>
<clipPath id="clip0_2118_1236">
<rect width="52" height="52" fill="white"/>
</clipPath>
</defs>
</svg>
