<svg width="66" height="110" viewBox="0 0 66 110" fill="none" xmlns="http://www.w3.org/2000/svg">
<path d="M16.5715 42.768C12.3475 42.768 8.97683 40.9333 6.4595 37.264C3.98483 33.5947 2.7475 28.3253 2.7475 21.456C2.7475 14.5867 3.98483 9.38133 6.4595 5.84C8.97683 2.29867 12.3475 0.528 16.5715 0.528C20.7955 0.528 24.1448 2.29867 26.6195 5.84C29.1368 9.38133 30.3955 14.5867 30.3955 21.456C30.3955 28.3253 29.1368 33.5947 26.6195 37.264C24.1448 40.9333 20.7955 42.768 16.5715 42.768ZM16.5715 37.008C17.8942 37.008 19.0675 36.5173 20.0915 35.536C21.1155 34.512 21.9048 32.8693 22.4595 30.608C23.0568 28.3467 23.3555 25.296 23.3555 21.456C23.3555 17.616 23.0568 14.5867 22.4595 12.368C21.9048 10.1493 21.1155 8.592 20.0915 7.696C19.0675 6.75733 17.8942 6.288 16.5715 6.288C15.2915 6.288 14.1395 6.75733 13.1155 7.696C12.0915 8.592 11.2808 10.1493 10.6835 12.368C10.0862 14.5867 9.7875 17.616 9.7875 21.456C9.7875 25.296 10.0862 28.3467 10.6835 30.608C11.2808 32.8693 12.0915 34.512 13.1155 35.536C14.1395 36.5173 15.2915 37.008 16.5715 37.008ZM37.736 42V35.984H46.824V9.232H39.336V4.624C41.3413 4.24 43.0907 3.792 44.584 3.28C46.0773 2.72533 47.464 2.064 48.744 1.296H54.248V35.984H62.248V42H37.736Z" fill="url(#paint0_linear_270_2481)"/>
<path d="M9.53177 66.2641V54.5308H21.2651C22.6774 54.5308 22.6752 52.3975 21.2651 52.3975H8.4651C7.8763 52.3975 7.39844 52.8753 7.39844 53.4641V66.2641C7.39844 67.6764 9.53177 67.6743 9.53177 66.2641Z" fill="#036B99"/>
<path d="M21.2651 101.468H9.53177V89.7352C9.53177 88.3229 7.39844 88.325 7.39844 89.7352V102.535C7.39844 103.124 7.8763 103.602 8.4651 103.602H21.2651C22.6774 103.602 22.6752 101.468 21.2651 101.468Z" fill="#036B99"/>
<path d="M58.5989 53.4641C58.5989 52.8753 58.121 52.3975 57.5322 52.3975H44.7322C43.32 52.3975 43.3221 54.5308 44.7322 54.5308H56.4656V66.2641C56.4656 67.6764 58.5989 67.6743 58.5989 66.2641V53.4641Z" fill="#036B99"/>
<path d="M56.4656 89.7352V101.468H44.7322C43.32 101.468 43.3221 103.602 44.7322 103.602H57.5322C58.121 103.602 58.5989 103.124 58.5989 102.535V89.7352C58.5989 88.3229 56.4656 88.325 56.4656 89.7352Z" fill="#036B99"/>
<path d="M18.0645 66.264C18.0645 66.8528 18.5423 67.3306 19.1311 67.3306H21.2645C21.8533 67.3306 22.3311 66.8528 22.3311 66.264V64.1306C22.3311 63.5418 21.8533 63.064 21.2645 63.064H19.1311C18.5423 63.064 18.0645 63.5418 18.0645 64.1306V66.264Z" fill="#036B99"/>
<path d="M14.8655 58.7974C14.2767 58.7974 13.7988 59.2752 13.7988 59.864V70.5307C13.7988 71.1195 14.2767 71.5974 14.8655 71.5974H25.5322C26.121 71.5974 26.5988 71.1195 26.5988 70.5307V59.864C26.5988 59.2752 26.121 58.7974 25.5322 58.7974H14.8655ZM15.9322 60.9307H24.4655V69.464H15.9322V60.9307Z" fill="#036B99"/>
<path d="M22.3311 89.7307C22.3311 89.1419 21.8533 88.6641 21.2645 88.6641H19.1311C18.5423 88.6641 18.0645 89.1419 18.0645 89.7307V91.8641C18.0645 92.4529 18.5423 92.9307 19.1311 92.9307H21.2645C21.8533 92.9307 22.3311 92.4529 22.3311 91.8641V89.7307Z" fill="#036B99"/>
<path d="M26.5988 85.4641C26.5988 84.8753 26.121 84.3975 25.5322 84.3975H14.8655C14.2767 84.3975 13.7988 84.8753 13.7988 85.4641V96.1308C13.7988 96.7196 14.2767 97.1975 14.8655 97.1975H25.5322C26.121 97.1975 26.5988 96.7196 26.5988 96.1308V85.4641ZM24.4655 95.0641H15.9322V86.5308H24.4655V95.0641Z" fill="#036B99"/>
<path d="M43.6641 66.264C43.6641 66.8528 44.1419 67.3306 44.7307 67.3306H46.8641C47.4529 67.3306 47.9307 66.8528 47.9307 66.264V64.1306C47.9307 63.5418 47.4529 63.064 46.8641 63.064H44.7307C44.1419 63.064 43.6641 63.5418 43.6641 64.1306V66.264Z" fill="#036B99"/>
<path d="M39.3984 70.5307C39.3984 71.1195 39.8763 71.5974 40.4651 71.5974H51.1318C51.7206 71.5974 52.1984 71.1195 52.1984 70.5307V59.864C52.1984 59.2752 51.7206 58.7974 51.1318 58.7974H40.4651C39.8763 58.7974 39.3984 59.2752 39.3984 59.864V70.5307ZM41.5318 60.9307H50.0651V69.464H41.5318V60.9307Z" fill="#036B99"/>
<path d="M21.2654 82.2643C21.498 82.2643 30.1145 82.2643 29.7988 82.2643C31.211 82.2643 31.2089 80.131 29.7988 80.131H26.5988V76.931C26.5988 75.5187 24.4654 75.5208 24.4654 76.931V80.131H21.2654C19.8532 80.131 19.8553 82.2643 21.2654 82.2643Z" fill="#036B99"/>
<path d="M30.8658 61.9974V59.8641C30.8658 58.4518 28.7324 58.4539 28.7324 59.8641V61.9974C28.7324 63.4097 30.8658 63.4075 30.8658 61.9974Z" fill="#036B99"/>
<path d="M29.7986 67.3307H34.0653C34.6541 67.3307 35.132 66.8528 35.132 66.264V63.064H36.1986C37.6109 63.064 37.6088 60.9307 36.1986 60.9307H34.0653C33.4765 60.9307 32.9986 61.4085 32.9986 61.9973V65.1973H29.7986C28.3864 65.1973 28.3885 67.3307 29.7986 67.3307Z" fill="#036B99"/>
<path d="M29.7986 77.9977H34.0653C35.4776 77.9977 35.4754 75.8644 34.0653 75.8644H32.9986V71.5977H36.1986C37.6109 71.5977 37.6088 69.4644 36.1986 69.4644H31.932C31.3432 69.4644 30.8653 69.9422 30.8653 70.531V75.8644H29.7986C28.3864 75.8644 28.3885 77.9977 29.7986 77.9977Z" fill="#036B99"/>
<path d="M37.2656 76.931C37.2656 78.3433 39.399 78.3411 39.399 76.931V74.7977C39.399 73.3854 37.2656 73.3875 37.2656 74.7977V76.931Z" fill="#036B99"/>
<path d="M30.8658 88.6642H32.9991V89.7309C32.9991 91.1431 35.1324 91.141 35.1324 89.7309V83.3309C35.1324 81.9186 32.9991 81.9207 32.9991 83.3309V86.5309H29.7991C29.2103 86.5309 28.7324 87.0087 28.7324 87.5975V89.7309C28.7324 91.1431 30.8658 91.141 30.8658 89.7309V88.6642Z" fill="#036B99"/>
<path d="M39.3981 89.7308V90.7974H38.3314C37.7426 90.7974 37.2648 91.2753 37.2648 91.8641V95.0641H31.9314C30.5192 95.0641 30.5213 97.1974 31.9314 97.1974H38.3314C38.9202 97.1974 39.3981 96.7196 39.3981 96.1308V92.9308H40.4648C41.0536 92.9308 41.5314 92.4529 41.5314 91.8641V89.7308C41.5314 88.3185 39.3981 88.3206 39.3981 89.7308Z" fill="#036B99"/>
<path d="M45.7989 91.8641V95.0641H44.7322C43.32 95.0641 43.3221 97.1974 44.7322 97.1974H51.1322C52.5445 97.1974 52.5424 95.0641 51.1322 95.0641H47.9322V91.8641C47.9322 90.4518 45.7989 90.4539 45.7989 91.8641Z" fill="#036B99"/>
<path d="M52.1989 85.4641C52.1989 84.8753 51.721 84.3975 51.1322 84.3975H44.7322C43.32 84.3975 43.3221 86.5308 44.7322 86.5308H50.0656V89.7351C50.0656 91.1473 52.1989 91.1452 52.1989 89.7351V85.4641Z" fill="#036B99"/>
<path d="M52.1979 76.931C52.1979 75.5187 50.0645 75.5208 50.0645 76.931V80.131H48.9979C47.5856 80.131 47.5877 82.2643 48.9979 82.2643H51.1312C51.72 82.2643 52.1979 81.7864 52.1979 81.1976V76.931Z" fill="#036B99"/>
<path d="M45.7985 81.1976V75.8643H46.8652C48.2774 75.8643 48.2753 73.731 46.8652 73.731H44.7318C44.143 73.731 43.6652 74.2088 43.6652 74.7976V80.131H40.4652C39.8764 80.131 39.3985 80.6088 39.3985 81.1976V84.3976H38.3318C36.9196 84.3976 36.9217 86.531 38.3318 86.531H40.4652C41.054 86.531 41.5318 86.0531 41.5318 85.4643V82.2643H44.7318C45.3206 82.2643 45.7985 81.7864 45.7985 81.1976Z" fill="#036B99"/>
<path d="M13.7988 74.7977C13.7988 75.1155 13.7988 81.507 13.7988 81.1977C13.7988 82.6099 15.9322 82.6078 15.9322 81.1977V77.9977H19.1322C20.5444 77.9977 20.5423 75.8643 19.1322 75.8643H15.9322V74.7977C15.9322 73.3854 13.7988 73.3875 13.7988 74.7977Z" fill="#036B99"/>
<defs>
<linearGradient id="paint0_linear_270_2481" x1="35" y1="-37.5" x2="33" y2="38" gradientUnits="userSpaceOnUse">
<stop stop-color="#D1D1D1"/>
<stop offset="1" stop-color="#999999" stop-opacity="0"/>
</linearGradient>
</defs>
</svg>
