<svg width="32" height="32" viewBox="0 0 32 32" fill="none" xmlns="http://www.w3.org/2000/svg">
<path fill-rule="evenodd" clip-rule="evenodd" d="M15.9993 1.66699C8.08327 1.66699 1.66602 8.08425 1.66602 16.0003C1.66602 23.9165 8.08327 30.3337 15.9993 30.3337C23.9155 30.3337 30.3327 23.9165 30.3327 16.0003C30.3327 8.08425 23.9155 1.66699 15.9993 1.66699ZM9.33268 8.33366C8.95716 8.33366 8.61328 8.54404 8.44232 8.8784C8.27136 9.21276 8.30214 9.61471 8.522 9.91915L13.6148 16.9707L8.62558 21.9599C8.23505 22.3505 8.23505 22.9835 8.62558 23.3741C9.01611 23.7646 9.64927 23.7646 10.0398 23.3741L14.8009 18.613L18.1516 23.2525C18.3396 23.5129 18.6412 23.667 18.9623 23.667H22.666C23.0416 23.667 23.3855 23.4566 23.5564 23.1222C23.7273 22.7879 23.6965 22.3859 23.4767 22.0815L18.3839 15.0299L23.3731 10.0408C23.7636 9.65025 23.7636 9.01707 23.3731 8.62655C22.9825 8.23603 22.3495 8.23603 21.9589 8.62655L17.1977 13.3877L13.8471 8.74817C13.6591 8.48786 13.3575 8.33366 13.0364 8.33366H9.33268Z" fill="#FFFAE6"/>
</svg>
