<svg width="64" height="64" viewBox="0 0 64 64" fill="none" xmlns="http://www.w3.org/2000/svg">
<path d="M12.7999 44.8001C12.7999 45.9782 11.8447 46.9334 10.6665 46.9334C9.48841 46.9334 8.5332 45.9782 8.5332 44.8001C8.5332 43.622 9.48841 42.6667 10.6665 42.6667C11.8447 42.6667 12.7999 43.622 12.7999 44.8001Z" fill="#333333"/>
<path d="M58.6671 44.8001C58.6671 45.9782 57.7118 46.9334 56.5337 46.9334C55.3556 46.9334 54.4004 45.9782 54.4004 44.8001C54.4004 43.622 55.3556 42.6667 56.5337 42.6667C57.7118 42.6667 58.6671 43.622 58.6671 44.8001Z" fill="#333333"/>
<path d="M35.1996 18.1332H26.6663C26.0772 18.1332 25.5996 18.6108 25.5996 19.1998V27.7332C25.5996 28.3222 26.0772 28.7998 26.6663 28.7998H35.1996C35.7887 28.7998 36.2663 28.3222 36.2663 27.7332V19.1998C36.2663 18.6108 35.7887 18.1332 35.1996 18.1332ZM34.1329 25.1582L31.6871 22.7123L30.1788 24.2207L32.6246 26.6665H27.7329V20.2665H34.1329V25.1582Z" fill="#333333"/>
<path d="M22.3998 18.1332H13.8665C13.2774 18.1332 12.7998 18.6108 12.7998 19.1998V27.7332C12.7998 28.3222 13.2774 28.7998 13.8665 28.7998H22.3998C22.9889 28.7998 23.4665 28.3222 23.4665 27.7332V19.1998C23.4665 18.6108 22.9889 18.1332 22.3998 18.1332ZM21.3331 25.1582L18.8873 22.7123L17.379 24.2207L19.8248 26.6665H14.9331V20.2665H21.3331V25.1582Z" fill="#333333"/>
<path d="M44.8003 28.8H46.9337V23.4667C46.9337 22.8776 46.4561 22.4 45.867 22.4H42.667V24.5334H44.8003V28.8Z" fill="#333333"/>
<path d="M62.9333 28.8002H51.2V20.2668H54.4C54.9891 20.2668 55.4667 19.7892 55.4667 19.2002V14.9335C55.4667 14.3444 54.9891 13.8668 54.4 13.8668H1.06667C0.477604 13.8668 0 14.3444 0 14.9335V42.6668C0 43.2559 0.477604 43.7335 1.06667 43.7335H5.4401C5.0099 45.8528 5.90156 48.0215 7.69792 49.2252C9.49427 50.4293 11.8391 50.4293 13.6354 49.2252C15.4318 48.0215 16.3234 45.8528 15.8932 43.7335H51.3068C50.8766 45.8528 51.7682 48.0215 53.5646 49.2252C55.3609 50.4293 57.7057 50.4293 59.5021 49.2252C61.2984 48.0215 62.1901 45.8528 61.7599 43.7335H62.9333C63.5224 43.7335 64 43.2559 64 42.6668V29.8668C64 29.2778 63.5224 28.8002 62.9333 28.8002ZM2.13333 20.2668H8.53333V25.1585L6.0875 22.7127L4.57917 24.221L7.025 26.6668H2.13333V20.2668ZM10.6667 48.0002C8.89948 48.0002 7.46667 46.5673 7.46667 44.8002C7.46667 43.033 8.89948 41.6002 10.6667 41.6002C12.4339 41.6002 13.8667 43.033 13.8667 44.8002C13.8667 46.5673 12.4339 48.0002 10.6667 48.0002ZM49.0667 41.6002H40.5333V20.2668H49.0667V41.6002ZM39.4667 18.1335C38.8776 18.1335 38.4 18.6111 38.4 19.2002V41.6002H14.9057C13.9099 40.258 12.3375 39.4668 10.6667 39.4668C8.99583 39.4668 7.42344 40.258 6.4276 41.6002H2.13333V37.3335H36.2667V35.2002H2.13333V33.0668H36.2667V30.9335H2.13333V28.8002H9.6C10.1891 28.8002 10.6667 28.3226 10.6667 27.7335V19.2002C10.6667 18.6111 10.1891 18.1335 9.6 18.1335H2.13333V16.0002H53.3333V18.1335H39.4667ZM56.5333 48.0002C54.7661 48.0002 53.3333 46.5673 53.3333 44.8002C53.3333 43.033 54.7661 41.6002 56.5333 41.6002C58.3005 41.6002 59.7333 43.033 59.7333 44.8002C59.7333 46.5673 58.3005 48.0002 56.5333 48.0002ZM61.8667 41.6002H60.7724C59.7766 40.258 58.2042 39.4668 56.5333 39.4668C54.8625 39.4668 53.2901 40.258 52.2943 41.6002H51.2V30.9335H57.6V34.1335C57.6 34.7226 58.0776 35.2002 58.6667 35.2002H61.8667V41.6002ZM61.8667 33.0668H59.7333V30.9335H61.8667V33.0668Z" fill="#333333"/>
</svg>
