<svg class="size-7 md:size-8 text-white" fill="none" viewBox="0 0 24 24" stroke="currentColor" stroke-width="1.5" aria-hidden="true">
                                    <path stroke-linecap="round" stroke-linejoin="round" d="M8.25 18.75a1.5 1.5 0 01-3 0m3 0a1.5 1.5 0 00-3 0m3 0h6m-9 0H3.375a1.125 1.125 0 01-1.125-1.125V14.25m17.25 4.5a1.5 1.5 0 01-3 0m3 0a1.5 1.5 0 00-3 0m3 0H21M3.375 14.25h17.25M3.375 14.25V6.375c0-.621.504-1.125 1.125-1.125h9.75c.621 0 1.125.504 1.125 1.125v7.875m3 0V9.75a2.25 2.25 0 00-2.25-2.25h-.75m3 4.5h1.5a1.5 1.5 0 011.5 1.5v1.5m-1.5-4.5V9m0 0h-3" />
                                </svg>