<svg width="64" height="64" viewBox="0 0 64 64" fill="none" xmlns="http://www.w3.org/2000/svg">
<path d="M29.2403 51.9998H9.33366C8.27279 51.9998 7.25538 51.5784 6.50523 50.8283C5.75509 50.0781 5.33366 49.0607 5.33366 47.9998V19.9998H49.3337V28.4265C49.3337 28.7801 49.4741 29.1193 49.7242 29.3693C49.9742 29.6194 50.3134 29.7598 50.667 29.7598C51.0206 29.7598 51.3598 29.6194 51.6098 29.3693C51.8599 29.1193 52.0003 28.7801 52.0003 28.4265V13.3332C51.9982 11.5657 51.2952 9.87125 50.0454 8.62146C48.7956 7.37168 47.1011 6.66862 45.3337 6.6665H42.667C42.667 5.60564 42.2456 4.58822 41.4954 3.83808C40.7453 3.08793 39.7279 2.6665 38.667 2.6665C37.6061 2.6665 36.5887 3.08793 35.8386 3.83808C35.0884 4.58822 34.667 5.60564 34.667 6.6665H20.0003C20.0003 5.60564 19.5789 4.58822 18.8288 3.83808C18.0786 3.08793 17.0612 2.6665 16.0003 2.6665C14.9395 2.6665 13.922 3.08793 13.1719 3.83808C12.4218 4.58822 12.0003 5.60564 12.0003 6.6665H9.33366C7.5662 6.66862 5.87174 7.37168 4.62195 8.62146C3.37217 9.87125 2.66911 11.5657 2.66699 13.3332V47.9998C2.66911 49.7673 3.37217 51.4618 4.62195 52.7115C5.87174 53.9613 7.5662 54.6644 9.33366 54.6665H29.2403C29.5939 54.6665 29.9331 54.526 30.1831 54.276C30.4332 54.0259 30.5737 53.6868 30.5737 53.3332C30.5737 52.9795 30.4332 52.6404 30.1831 52.3904C29.9331 52.1403 29.5939 51.9998 29.2403 51.9998ZM37.3337 6.6665C37.3337 6.31288 37.4741 5.97374 37.7242 5.7237C37.9742 5.47365 38.3134 5.33317 38.667 5.33317C39.0206 5.33317 39.3598 5.47365 39.6098 5.7237C39.8599 5.97374 40.0003 6.31288 40.0003 6.6665V9.33317C40.0003 9.68679 39.8599 10.0259 39.6098 10.276C39.3598 10.526 39.0206 10.6665 38.667 10.6665C38.3134 10.6665 37.9742 10.526 37.7242 10.276C37.4741 10.0259 37.3337 9.68679 37.3337 9.33317V6.6665ZM14.667 6.6665C14.667 6.31288 14.8075 5.97374 15.0575 5.7237C15.3076 5.47365 15.6467 5.33317 16.0003 5.33317C16.3539 5.33317 16.6931 5.47365 16.9431 5.7237C17.1932 5.97374 17.3337 6.31288 17.3337 6.6665V9.33317C17.3337 9.68679 17.1932 10.0259 16.9431 10.276C16.6931 10.526 16.3539 10.6665 16.0003 10.6665C15.6467 10.6665 15.3076 10.526 15.0575 10.276C14.8075 10.0259 14.667 9.68679 14.667 9.33317V6.6665ZM5.33366 13.3332C5.33366 12.2723 5.75509 11.2549 6.50523 10.5047C7.25538 9.7546 8.27279 9.33317 9.33366 9.33317H12.0003C12.0003 10.394 12.4218 11.4115 13.1719 12.1616C13.922 12.9117 14.9395 13.3332 16.0003 13.3332C17.0612 13.3332 18.0786 12.9117 18.8288 12.1616C19.5789 11.4115 20.0003 10.394 20.0003 9.33317H34.667C34.667 10.394 35.0884 11.4115 35.8386 12.1616C36.5887 12.9117 37.6061 13.3332 38.667 13.3332C39.7279 13.3332 40.7453 12.9117 41.4954 12.1616C42.2456 11.4115 42.667 10.394 42.667 9.33317H45.3337C46.3945 9.33317 47.4119 9.7546 48.1621 10.5047C48.9122 11.2549 49.3337 12.2723 49.3337 13.3332V17.3332H5.33366V13.3332Z" fill="#333333"/>
<path d="M18.6663 26.6667C18.6663 25.9594 18.3854 25.2811 17.8853 24.781C17.3852 24.281 16.7069 24 15.9997 24H11.9997C11.2924 24 10.6142 24.281 10.1141 24.781C9.61396 25.2811 9.33301 25.9594 9.33301 26.6667V30.6667C9.33301 31.3739 9.61396 32.0522 10.1141 32.5523C10.6142 33.0524 11.2924 33.3333 11.9997 33.3333H15.9997C16.7069 33.3333 17.3852 33.0524 17.8853 32.5523C18.3854 32.0522 18.6663 31.3739 18.6663 30.6667V26.6667ZM11.9997 30.6667V26.6667H15.9997V30.6667H11.9997Z" fill="#333333"/>
<path d="M32.0003 26.6667C32.0003 25.9594 31.7194 25.2811 31.2193 24.781C30.7192 24.281 30.0409 24 29.3337 24H25.3337C24.6264 24 23.9481 24.281 23.448 24.781C22.9479 25.2811 22.667 25.9594 22.667 26.6667V30.6667C22.667 31.3739 22.9479 32.0522 23.448 32.5523C23.9481 33.0524 24.6264 33.3333 25.3337 33.3333H29.3337C30.0409 33.3333 30.7192 33.0524 31.2193 32.5523C31.7194 32.0522 32.0003 31.3739 32.0003 30.6667V26.6667ZM25.3337 30.6667V26.6667H29.3337V30.6667H25.3337Z" fill="#333333"/>
<path d="M44 29.52C44.3536 29.52 44.6928 29.3795 44.9428 29.1295C45.1929 28.8794 45.3333 28.5403 45.3333 28.1867V26.6667C45.3333 25.9594 45.0524 25.2811 44.5523 24.781C44.0522 24.281 43.3739 24 42.6667 24H38.6667C37.9594 24 37.2811 24.281 36.781 24.781C36.281 25.2811 36 25.9594 36 26.6667V30.5067C36 30.8603 36.1405 31.1994 36.3905 31.4495C36.6406 31.6995 36.9797 31.84 37.3333 31.84C37.687 31.84 38.0261 31.6995 38.2761 31.4495C38.5262 31.1994 38.6667 30.8603 38.6667 30.5067V26.6667H42.6667V28.1867C42.6667 28.5403 42.8071 28.8794 43.0572 29.1295C43.3072 29.3795 43.6464 29.52 44 29.52Z" fill="#333333"/>
<path d="M15.9997 37.3335H11.9997C11.2924 37.3335 10.6142 37.6144 10.1141 38.1145C9.61396 38.6146 9.33301 39.2929 9.33301 40.0002V44.0002C9.33301 44.7074 9.61396 45.3857 10.1141 45.8858C10.6142 46.3859 11.2924 46.6668 11.9997 46.6668H15.9997C16.7069 46.6668 17.3852 46.3859 17.8853 45.8858C18.3854 45.3857 18.6663 44.7074 18.6663 44.0002V40.0002C18.6663 39.2929 18.3854 38.6146 17.8853 38.1145C17.3852 37.6144 16.7069 37.3335 15.9997 37.3335ZM11.9997 44.0002V40.0002H15.9997V44.0002H11.9997Z" fill="#333333"/>
<path d="M30.2537 37.5082C29.9609 37.3919 29.6486 37.3326 29.3337 37.3335H25.3337C24.6264 37.3335 23.9481 37.6145 23.448 38.1146C22.9479 38.6147 22.667 39.2929 22.667 40.0002V44.0002C22.667 44.7074 22.9479 45.3857 23.448 45.8858C23.9481 46.3859 24.6264 46.6668 25.3337 46.6668H28.0537C28.4073 46.6668 28.7464 46.5264 28.9965 46.2763C29.2465 46.0263 29.387 45.6871 29.387 45.3335C29.387 44.9799 29.2465 44.6407 28.9965 44.3907C28.7464 44.1406 28.4073 44.0002 28.0537 44.0002H25.3337V40.0002L29.267 39.9855C29.5949 40.1132 29.9599 40.1061 30.2826 39.9658C30.6052 39.8254 30.8593 39.5633 30.9895 39.2364C31.1197 38.9095 31.1154 38.5444 30.9776 38.2207C30.8397 37.897 30.5795 37.6409 30.2537 37.5082Z" fill="#333333"/>
<path d="M46.6667 32C43.7659 32 40.9302 32.8602 38.5183 34.4718C36.1064 36.0834 34.2265 38.374 33.1164 41.054C32.0064 43.734 31.7159 46.6829 32.2818 49.528C32.8477 52.373 34.2446 54.9864 36.2958 57.0376C38.3469 59.0887 40.9603 60.4856 43.8053 61.0515C46.6504 61.6174 49.5994 61.327 52.2794 60.2169C54.9593 59.1068 57.25 57.2269 58.8616 54.815C60.4732 52.4031 61.3333 49.5675 61.3333 46.6667C61.3288 42.7782 59.782 39.0504 57.0325 36.3008C54.283 33.5513 50.5551 32.0046 46.6667 32ZM46.6667 58.6667C44.2933 58.6667 41.9732 57.9629 39.9998 56.6443C38.0264 55.3257 36.4884 53.4516 35.5801 51.2589C34.6719 49.0662 34.4342 46.6534 34.8972 44.3256C35.3603 41.9978 36.5032 39.8596 38.1814 38.1814C39.8596 36.5032 41.9978 35.3603 44.3256 34.8972C46.6534 34.4342 49.0662 34.6719 51.2589 35.5801C53.4516 36.4884 55.3257 38.0264 56.6443 39.9998C57.9629 41.9732 58.6667 44.2933 58.6667 46.6667C58.6631 49.8482 57.3977 52.8984 55.1481 55.1481C52.8984 57.3977 49.8482 58.6631 46.6667 58.6667Z" fill="#333333"/>
<path d="M47.9997 46.1145V39.9998C47.9997 39.6462 47.8592 39.3071 47.6092 39.057C47.3591 38.807 47.02 38.6665 46.6663 38.6665C46.3127 38.6665 45.9736 38.807 45.7235 39.057C45.4735 39.3071 45.333 39.6462 45.333 39.9998V46.6665C45.3331 47.0201 45.4736 47.3592 45.7237 47.6092L48.3903 50.2758C48.6418 50.5187 48.9786 50.6531 49.3282 50.6501C49.6778 50.647 50.0122 50.5068 50.2594 50.2596C50.5066 50.0124 50.6469 49.678 50.6499 49.3284C50.6529 48.9788 50.5186 48.642 50.2757 48.3905L47.9997 46.1145Z" fill="#333333"/>
</svg>
