<svg width="43" height="43" viewBox="0 0 43 43" fill="none" xmlns="http://www.w3.org/2000/svg">
<path d="M21.3335 23.8852C22.7402 23.8852 23.8868 22.7385 23.8868 21.3319C23.8868 20.1519 23.0802 19.1652 21.9935 18.8719V12.2985C22.0002 11.9319 21.7068 11.6319 21.3335 11.6319C20.9668 11.6319 20.6668 11.9319 20.6668 12.2985V18.8719C19.7868 19.1119 19.1068 19.7919 18.8668 20.6652H13.0335C12.6668 20.6652 12.3668 20.9652 12.3668 21.3319C12.3668 21.6985 12.6668 21.9985 13.0335 21.9985H18.8668C19.1668 23.0785 20.1468 23.8852 21.3202 23.8852H21.3335ZM21.3335 20.1052C22.0068 20.1052 22.5535 20.6519 22.5535 21.3252C22.5535 21.9985 22.0068 22.5452 21.3335 22.5452C20.6602 22.5452 20.1135 21.9985 20.1135 21.3252C20.1135 20.6519 20.6602 20.1052 21.3335 20.1052ZM40.6602 21.3252C40.6602 10.6652 31.9868 1.99854 21.3335 1.99854C10.6802 1.99854 2.00684 10.6719 2.00684 21.3319C2.00684 31.9919 10.6802 40.6585 21.3335 40.6585C21.7735 40.6585 22.2335 40.6385 22.7668 40.5985C22.8802 40.6119 22.9868 40.6319 23.1002 40.6319H36.3468C37.7002 40.6319 38.7935 39.5319 38.7935 38.1852V29.6119C40.0268 27.0119 40.6602 24.2252 40.6602 21.3252ZM31.2402 31.7519H28.2135C27.8468 31.7519 27.5468 32.0519 27.5468 32.4185V32.9185L25.9735 32.4719V27.1252H33.4802V32.4719L31.9068 32.9185V32.4185C31.9068 32.0519 31.6068 31.7519 31.2402 31.7519ZM30.5735 33.0852V34.8119L29.7268 35.3319L28.8802 34.8119V33.0852H30.5735ZM13.0335 29.6119C12.7735 29.3519 12.3535 29.3519 12.0935 29.6119L10.7802 30.9252C8.60684 28.5385 7.2335 25.4252 7.0735 21.9919H8.9335C9.30017 21.9919 9.60017 21.6919 9.60017 21.3252C9.60017 20.9585 9.30017 20.6585 8.9335 20.6585H7.0735C7.2335 17.2252 8.60017 14.1052 10.7735 11.7185L12.0935 13.0385C12.2268 13.1719 12.3935 13.2319 12.5668 13.2319C12.7402 13.2319 12.9068 13.1652 13.0402 13.0385C13.3002 12.7785 13.3002 12.3585 13.0402 12.0985L11.7202 10.7785C14.1068 8.59854 17.2202 7.2252 20.6602 7.0652V8.93853C20.6602 9.3052 20.9602 9.6052 21.3268 9.6052C21.6935 9.6052 21.9935 9.3052 21.9935 8.93853V7.05854C25.4335 7.21853 28.5535 8.59187 30.9402 10.7652L29.6135 12.0919C29.3535 12.3519 29.3535 12.7719 29.6135 13.0319C29.7468 13.1652 29.9135 13.2252 30.0868 13.2252C30.2602 13.2252 30.4268 13.1585 30.5602 13.0319L31.8868 11.7052C34.0668 14.0919 35.4402 17.2119 35.6002 20.6519H33.7202C33.3535 20.6519 33.0535 20.9519 33.0535 21.3185C33.0535 21.6852 33.3535 21.9852 33.7202 21.9852H35.6068C35.5468 23.2852 35.3135 24.5519 34.9068 25.7852H33.3135V24.5052C33.3135 23.3919 32.4068 22.4919 31.3002 22.4919H28.1735C27.0602 22.4919 26.1602 23.3985 26.1602 24.5052V25.7852H23.1135C21.7668 25.7852 20.6668 26.8852 20.6668 28.2319V35.5719C17.2335 35.4119 14.1202 34.0385 11.7335 31.8585L13.0468 30.5452C13.3068 30.2852 13.3068 29.8652 13.0468 29.6052L13.0335 29.6119ZM31.9668 25.7919H27.4802V24.5119C27.4802 24.1385 27.7868 23.8319 28.1602 23.8319H31.2868C31.6602 23.8319 31.9668 24.1385 31.9668 24.5119V25.7919ZM21.9868 28.2385C21.9868 27.6252 22.4868 27.1252 23.1002 27.1252H24.6335V32.0985L21.9868 31.3452V28.2385ZM34.8135 27.1252H36.3468C36.9602 27.1252 37.4602 27.6252 37.4602 28.2385V31.3452L34.8135 32.0985V27.1252ZM3.34017 21.3319C3.34017 11.4119 11.4135 3.33854 21.3335 3.33854C31.2535 3.33854 39.3268 11.4119 39.3268 21.3319C39.3268 23.2719 39.0202 25.1585 38.4202 26.9652C37.9868 26.2652 37.2202 25.7985 36.3468 25.7985H36.2935C36.7268 24.3519 36.9535 22.8585 36.9535 21.3319C36.9535 12.7185 29.9468 5.7052 21.3268 5.7052C12.7068 5.7052 5.70017 12.7119 5.70017 21.3319C5.70017 29.9519 12.3468 36.5852 20.6468 36.9385V38.1852C20.6468 38.5919 20.7602 38.9785 20.9335 39.3185C11.1868 39.1119 3.32684 31.1252 3.32684 21.3319H3.34017ZM36.3535 39.3052H23.1068C22.4935 39.3052 21.9935 38.8052 21.9935 38.1919V32.7452L27.5468 34.3185V35.1985C27.5468 35.4319 27.6668 35.6452 27.8668 35.7652L29.3802 36.6985C29.4868 36.7652 29.6068 36.7985 29.7268 36.7985C29.8468 36.7985 29.9668 36.7652 30.0735 36.6985L31.5868 35.7652C31.7868 35.6452 31.9068 35.4319 31.9068 35.1985V34.3185L37.4602 32.7452V38.1919C37.4602 38.8052 36.9602 39.3052 36.3468 39.3052H36.3535Z" fill="#333333"/>
</svg>
