<svg width="26" height="26" viewBox="0 0 26 26" fill="none" xmlns="http://www.w3.org/2000/svg">
<g clip-path="url(#clip0_2118_1132)">
<path d="M26 13C26 5.81953 20.1805 0 13 0C5.81953 0 0 5.81953 0 13C0 19.4893 4.75109 24.8676 10.9698 25.8431V16.7609H7.67152V13H10.9698V10.1364C10.9698 6.88086 12.9071 5.07914 15.8778 5.07914C17.3022 5.07914 18.7911 5.33559 18.7911 5.33559V8.53379H17.1529C15.536 8.53379 15.0373 9.53824 15.0373 10.564V13H18.6418L18.0649 16.7609H15.0373V25.8431C21.2489 24.8676 26 19.4893 26 13Z" fill="#F7F7F7"/>
<path d="M18.057 16.7603L18.6343 12.9995H15.0299V10.5635C15.0299 9.53771 15.5357 8.53326 17.1454 8.53326H18.7836V5.33506C18.7836 5.33506 17.2947 5.07861 15.8703 5.07861C12.9001 5.07861 10.9623 6.88084 10.9623 10.1359V12.9995H7.66406V16.7603H10.9623V25.8426C11.625 25.9492 12.3014 25.9995 12.9925 25.9995C13.6837 25.9995 14.3601 25.9426 15.0228 25.8426V16.7603H18.057Z" fill="#1F1F1F"/>
</g>
<defs>
<clipPath id="clip0_2118_1132">
<rect width="26" height="26" fill="white"/>
</clipPath>
</defs>
</svg>
