<svg width="26" height="26" viewBox="0 0 26 26" fill="none" xmlns="http://www.w3.org/2000/svg">
<g clip-path="url(#clip0_2118_1137)">
<path d="M16.8762 6.91748H9.12698C7.89009 6.91748 6.88379 7.92378 6.88379 9.16066V16.9098C6.88379 18.1467 7.89009 19.1533 9.12698 19.1533H16.8762C18.113 19.1533 19.1196 18.147 19.1196 16.9098V9.16066C19.1196 7.92378 18.1133 6.91748 16.8762 6.91748ZM13.0016 17.0634C10.7807 17.0634 8.97374 15.2564 8.97374 13.0353C8.97374 10.8144 10.7807 9.00743 13.0016 9.00743C15.2227 9.00743 17.0297 10.8144 17.0297 13.0353C17.0297 15.2561 15.2225 17.0634 13.0016 17.0634ZM17.1592 9.84022C16.6334 9.84022 16.2059 9.41267 16.2059 8.88722C16.2059 8.36176 16.6334 7.93421 17.1592 7.93421C17.6846 7.93421 18.1122 8.36176 18.1122 8.88722C18.1122 9.41267 17.6846 9.84022 17.1592 9.84022Z" fill="#F7F7F7"/>
<path d="M13.0018 10.7095C11.7197 10.7095 10.6758 11.7529 10.6758 13.0349C10.6758 14.3176 11.7197 15.3612 13.0018 15.3612C14.2845 15.3612 15.3276 14.3176 15.3276 13.0349C15.3276 11.7531 14.2842 10.7095 13.0018 10.7095Z" fill="#F7F7F7"/>
<path d="M13.001 0C5.82156 0 0.000976562 5.82057 0.000976562 13C0.000976562 20.1794 5.82156 25.9999 13.001 25.9999C20.1804 25.9999 26.001 20.1794 26.001 13C26.001 5.82057 20.1804 0 13.001 0ZM20.8208 16.9096C20.8208 19.0853 19.0513 20.8549 16.8756 20.8549H9.12638C6.95097 20.8549 5.1811 19.0853 5.1811 16.9096V9.16043C5.1811 6.98503 6.95097 5.21517 9.12638 5.21517H16.8756C19.0513 5.21517 20.8208 6.98503 20.8208 9.16043V16.9096Z" fill="#F7F7F7"/>
</g>
<defs>
<clipPath id="clip0_2118_1137">
<rect width="26" height="25.9999" fill="white"/>
</clipPath>
</defs>
</svg>
