<svg width="48" height="48" viewBox="0 0 48 48" fill="none" xmlns="http://www.w3.org/2000/svg">
<g clip-path="url(#clip0_2117_605)">
<path d="M45.1199 41.7503L40.5719 33.1671C40.2524 32.5692 39.6583 32.2122 38.9824 32.2122H30.1484C33.9842 27.3791 37.7122 21.9663 37.7122 17.3177C37.7122 9.75808 31.562 3.60791 24.0023 3.60791C16.4414 3.60791 10.2901 9.75808 10.2901 17.3177C10.2901 21.9611 14.0198 27.376 17.8573 32.2122H9.02219C8.3426 32.2122 7.74785 32.5702 7.43152 33.1691L2.88619 41.7476C2.5801 42.3186 2.59644 42.9649 2.93252 43.5236C3.26802 44.0754 3.83035 44.3919 4.47527 44.3919H11.1788H16.1509H43.5294C44.1765 44.3919 44.7387 44.0744 45.0714 43.5209C45.4045 42.9669 45.4223 42.3217 45.1199 41.7503ZM38.9824 33.5455C39.1656 33.5455 39.3086 33.6319 39.3948 33.7932L40.2329 35.375H27.5812C28.0704 34.7795 28.572 34.1687 29.0776 33.5455H38.9824ZM24.0023 4.94108C30.8268 4.94108 36.3789 10.4932 36.3789 17.3177C36.3789 22.5678 30.6549 29.5342 26.4754 34.6208C25.5854 35.7038 24.7373 36.736 24.0024 37.6773C23.268 36.7369 22.4209 35.7055 21.5319 34.6233C17.3503 29.5329 11.6234 22.5614 11.6234 17.3177C11.6234 10.4932 17.1765 4.94108 24.0023 4.94108ZM9.02219 33.5455H13.8832L13.2711 35.375H7.7716L8.6101 33.7925C8.69535 33.6309 8.83794 33.5455 9.02219 33.5455ZM4.07335 42.8337C3.98327 42.684 3.97919 42.5305 4.06277 42.3746L5.47694 39.7057H11.8211L10.6989 43.0587H4.47527C4.29927 43.0587 4.1636 42.9821 4.07335 42.8337ZM12.1048 43.0587L13.3793 39.2507C13.4474 39.0473 13.4134 38.8237 13.2882 38.6497C13.1629 38.4757 12.9615 38.3725 12.7471 38.3725H6.18335L7.0651 36.7082H13.751C14.0377 36.7082 14.2923 36.525 14.3832 36.2531L15.289 33.5455H18.9278C19.46 34.2017 19.9879 34.8443 20.5015 35.4697C21.5236 36.7138 22.49 37.8902 23.2829 38.9267C23.4246 39.1857 23.6969 39.3512 24.0019 39.3513H24.0022C24.3073 39.3513 24.5798 39.1858 24.7214 38.9267C25.2456 38.2416 25.8464 37.4947 26.4881 36.7082H40.9393L41.8211 38.3725H27.1202C26.8473 38.3725 26.6019 38.5388 26.5009 38.7924C26.3999 39.0459 26.4637 39.3355 26.6619 39.5231L30.3953 43.0587H26.5259L19.042 35.971C18.8766 35.8144 18.643 35.753 18.422 35.8082C18.2012 35.8634 18.0237 36.0275 17.9514 36.2434L15.6709 43.0587H12.1048V43.0587ZM24.5871 43.0587H17.0769L18.8843 37.6577L24.5871 43.0587ZM43.9288 42.8338C43.8391 42.9831 43.7047 43.0587 43.5293 43.0587H32.3342L28.7935 39.7057H42.5276L43.9417 42.3744C44.0235 42.5289 44.0192 42.6835 43.9288 42.8338ZM32.4258 17.3177C32.4258 12.673 28.647 8.89416 24.0022 8.89416C19.3574 8.89416 15.5786 12.6729 15.5786 17.3177C15.5786 21.9638 19.3574 25.7437 24.0022 25.7437C28.647 25.7437 32.4258 21.9637 32.4258 17.3177ZM16.9119 17.3177C16.9119 13.4081 20.0926 10.2274 24.0023 10.2274C27.9119 10.2274 31.0926 13.4081 31.0926 17.3177C31.0926 21.2287 27.9119 24.4104 24.0023 24.4104C20.0926 24.4104 16.9119 21.2286 16.9119 17.3177Z" fill="#333333"/>
</g>
<defs>
<clipPath id="clip0_2117_605">
<rect width="42.6667" height="42.6667" fill="white" transform="translate(2.66699 2.6665)"/>
</clipPath>
</defs>
</svg>
