<svg width="29" height="29" viewBox="0 0 29 29" fill="none" xmlns="http://www.w3.org/2000/svg">
<path fill-rule="evenodd" clip-rule="evenodd" d="M14.3333 0C6.41725 0 0 6.41725 0 14.3333C0 22.2495 6.41725 28.6667 14.3333 28.6667C22.2495 28.6667 28.6667 22.2495 28.6667 14.3333C28.6667 6.41725 22.2495 0 14.3333 0ZM7.66667 6.66667C7.29115 6.66667 6.94727 6.87705 6.77631 7.21141C6.60535 7.54577 6.63612 7.94772 6.85599 8.25216L11.9488 15.3037L6.95956 20.2929C6.56904 20.6835 6.56904 21.3165 6.95956 21.7071C7.35009 22.0976 7.98325 22.0976 8.37377 21.7071L13.1349 16.946L16.4856 21.5855C16.6736 21.8459 16.9752 22 17.2963 22H21C21.3756 22 21.7195 21.7896 21.8904 21.4552C22.0613 21.1209 22.0305 20.7189 21.8107 20.4145L16.7179 13.3629L21.7071 8.37377C22.0976 7.98325 22.0976 7.35008 21.7071 6.95956C21.3165 6.56904 20.6835 6.56904 20.2929 6.95956L15.5317 11.7207L12.1811 7.08117C11.9931 6.82087 11.6915 6.66667 11.3704 6.66667H7.66667Z" fill="#F7F7F7"/>
</svg>
